<mxfile host="drawio-plugin" agent="Mozilla/5.0 (Macintosh; Intel Mac OS X 10_15_7) AppleWebKit/537.36 (KHTML, like Gecko) Chrome/122.0.0.0 Safari/537.36" modified="2024-12-29T03:05:27.806Z" version="22.1.22" etag="oxiqxv7Mrii79jEijp7r" type="embed">
  <diagram name="第 1 页" id="MIkz2ZGcFib-e6OIxofc">
    <mxGraphModel dx="770" dy="972" grid="1" gridSize="10" guides="1" tooltips="1" connect="1" arrows="1" fold="1" page="1" pageScale="1" pageWidth="827" pageHeight="1169" math="0" shadow="0">
      <root>
        <mxCell id="0" />
        <mxCell id="1" parent="0" />
        <mxCell id="ZLqSBCDvS8MmdOFd6wj0-1" value="Scaf server" style="rounded=0;whiteSpace=wrap;html=1;fontSize=14;" parent="1" vertex="1">
          <mxGeometry x="340" y="340" width="120" height="60" as="geometry" />
        </mxCell>
        <mxCell id="ZLqSBCDvS8MmdOFd6wj0-4" style="rounded=0;orthogonalLoop=1;jettySize=auto;html=1;entryX=0.25;entryY=1;entryDx=0;entryDy=0;strokeWidth=2;strokeColor=default;" parent="1" source="ZLqSBCDvS8MmdOFd6wj0-2" target="ZLqSBCDvS8MmdOFd6wj0-1" edge="1">
          <mxGeometry relative="1" as="geometry" />
        </mxCell>
        <mxCell id="ZLqSBCDvS8MmdOFd6wj0-13" value="Connection A" style="edgeLabel;html=1;align=center;verticalAlign=middle;resizable=0;points=[];fontSize=13;" parent="ZLqSBCDvS8MmdOFd6wj0-4" vertex="1" connectable="0">
          <mxGeometry x="-0.0513" y="-3" relative="1" as="geometry">
            <mxPoint x="-6" y="-6" as="offset" />
          </mxGeometry>
        </mxCell>
        <mxCell id="ZLqSBCDvS8MmdOFd6wj0-6" style="edgeStyle=orthogonalEdgeStyle;rounded=0;orthogonalLoop=1;jettySize=auto;html=1;entryX=0;entryY=0.5;entryDx=0;entryDy=0;dashed=1;exitX=1;exitY=0.5;exitDx=0;exitDy=0;strokeWidth=2;startArrow=classic;startFill=1;" parent="1" source="ZLqSBCDvS8MmdOFd6wj0-2" target="ZLqSBCDvS8MmdOFd6wj0-3" edge="1">
          <mxGeometry relative="1" as="geometry" />
        </mxCell>
        <mxCell id="ZLqSBCDvS8MmdOFd6wj0-15" value="Virtual Connection" style="edgeLabel;html=1;align=center;verticalAlign=middle;resizable=0;points=[];fontSize=13;" parent="ZLqSBCDvS8MmdOFd6wj0-6" vertex="1" connectable="0">
          <mxGeometry x="-0.1333" y="-2" relative="1" as="geometry">
            <mxPoint x="16" y="8" as="offset" />
          </mxGeometry>
        </mxCell>
        <mxCell id="ZLqSBCDvS8MmdOFd6wj0-2" value="Scaf client A" style="rounded=0;whiteSpace=wrap;html=1;fontSize=14;" parent="1" vertex="1">
          <mxGeometry x="160" y="560" width="120" height="60" as="geometry" />
        </mxCell>
        <mxCell id="ZLqSBCDvS8MmdOFd6wj0-5" style="rounded=0;orthogonalLoop=1;jettySize=auto;html=1;entryX=0.75;entryY=1;entryDx=0;entryDy=0;strokeWidth=2;strokeColor=default;" parent="1" source="ZLqSBCDvS8MmdOFd6wj0-3" target="ZLqSBCDvS8MmdOFd6wj0-1" edge="1">
          <mxGeometry relative="1" as="geometry" />
        </mxCell>
        <mxCell id="ZLqSBCDvS8MmdOFd6wj0-14" value="Connection B" style="edgeLabel;html=1;align=center;verticalAlign=middle;resizable=0;points=[];fontSize=13;" parent="ZLqSBCDvS8MmdOFd6wj0-5" vertex="1" connectable="0">
          <mxGeometry x="-0.0007" y="2" relative="1" as="geometry">
            <mxPoint y="-1" as="offset" />
          </mxGeometry>
        </mxCell>
        <mxCell id="ZLqSBCDvS8MmdOFd6wj0-3" value="Scaf client B" style="rounded=0;whiteSpace=wrap;html=1;fontSize=14;" parent="1" vertex="1">
          <mxGeometry x="520" y="560" width="120" height="60" as="geometry" />
        </mxCell>
        <mxCell id="2" value="Text" style="text;strokeColor=none;align=center;fillColor=none;html=1;verticalAlign=middle;whiteSpace=wrap;rounded=0;" vertex="1" parent="1">
          <mxGeometry x="510" y="80" width="60" height="30" as="geometry" />
        </mxCell>
      </root>
    </mxGraphModel>
  </diagram>
</mxfile>
